<svg width="1280" height="310" viewBox="0 0 1280 310" xmlns="http://www.w3.org/2000/svg">
<defs>
  <style>
    @keyframes float{0%,100%{transform:translateY(0px)}50%{transform:translateY(-10px)}}
    @keyframes glowPulse{0%,100%{filter:drop-shadow(0 0 18px #00d4ff) drop-shadow(0 0 40px #00d4ff) drop-shadow(0 0 80px rgba(123,47,255,.6))}50%{filter:drop-shadow(0 0 30px #00d4ff) drop-shadow(0 0 65px #00d4ff) drop-shadow(0 0 130px rgba(123,47,255,.9)) drop-shadow(0 0 180px rgba(0,212,255,.4))}}
    @keyframes bgPulse{0%,100%{opacity:.7}50%{opacity:1}}
    @keyframes gridFade{0%,100%{opacity:.04}50%{opacity:.09}}
    .title{animation:float 5s ease-in-out infinite,glowPulse 3s ease-in-out infinite}
    .subtitle{animation:float 5s ease-in-out infinite .3s}
    .badge1{animation:float 5s ease-in-out infinite .5s}
    .badge2{animation:float 5s ease-in-out infinite .8s}
    .badge3{animation:float 5s ease-in-out infinite 1.1s}
    .grid{animation:gridFade 4s ease-in-out infinite}
    .orb{animation:bgPulse 4s ease-in-out infinite}
  </style>
  <linearGradient id="bg" x1="0%" y1="0%" x2="100%" y2="100%">
    <stop offset="0%" stop-color="#050510"/>
    <stop offset="20%" stop-color="#001030"/>
    <stop offset="45%" stop-color="#002055"/>
    <stop offset="65%" stop-color="#120028"/>
    <stop offset="85%" stop-color="#1a0808"/>
    <stop offset="100%" stop-color="#050510"/>
  </linearGradient>
  <filter id="neon" x="-30%" y="-80%" width="160%" height="260%">
    <feGaussianBlur in="SourceAlpha" stdDeviation="3" result="b1"/>
    <feColorMatrix in="b1" values="0 0 0 0 0  0 0 0 0 0.83  0 0 0 0 1  0 0 0 1 0" result="c1"/>
    <feGaussianBlur in="SourceAlpha" stdDeviation="12" result="b2"/>
    <feColorMatrix in="b2" values="0 0 0 0 0  0 0 0 0 0.83  0 0 0 0 1  0 0 0 .7 0" result="c2"/>
    <feGaussianBlur in="SourceAlpha" stdDeviation="28" result="b3"/>
    <feColorMatrix in="b3" values="0.48 0 0 0 0  0 0.18 0 0 1  0 0 0 0 1  0 0 0 .5 0" result="c3"/>
    <feGaussianBlur in="SourceAlpha" stdDeviation="50" result="b4"/>
    <feColorMatrix in="b4" values="0 0 0 0 0  0 0 0 0 0.15  0 0 0 0 0.8  0 0 0 .3 0" result="c4"/>
    <feMerge><feMergeNode in="c4"/><feMergeNode in="c3"/><feMergeNode in="c2"/><feMergeNode in="c1"/><feMergeNode in="SourceGraphic"/></feMerge>
  </filter>
  <filter id="subGlow" x="-20%" y="-100%" width="140%" height="300%">
    <feGaussianBlur in="SourceAlpha" stdDeviation="5" result="b"/>
    <feColorMatrix in="b" values="0 0 0 0 0  0 0 0 0 0.83  0 0 0 0 1  0 0 0 .9 0"/>
    <feMerge><feMergeNode/><feMergeNode in="SourceGraphic"/></feMerge>
  </filter>
  <radialGradient id="orb" cx="50%" cy="50%" r="50%">
    <stop offset="0%" stop-color="#00d4ff" stop-opacity="0.18"/>
    <stop offset="50%" stop-color="#7b2fff" stop-opacity="0.08"/>
    <stop offset="100%" stop-color="#000" stop-opacity="0"/>
  </radialGradient>
</defs>

<rect width="1280" height="310" fill="url(#bg)"/>

<g class="grid" stroke="#00d4ff" stroke-width=".7">
  <line x1="0" y1="36" x2="1280" y2="36"/><line x1="0" y1="72" x2="1280" y2="72"/>
  <line x1="0" y1="108" x2="1280" y2="108"/><line x1="0" y1="144" x2="1280" y2="144"/>
  <line x1="0" y1="180" x2="1280" y2="180"/><line x1="0" y1="216" x2="1280" y2="216"/>
  <line x1="0" y1="252" x2="1280" y2="252"/>
  <line x1="90" y1="0" x2="90" y2="310"/><line x1="180" y1="0" x2="180" y2="310"/>
  <line x1="270" y1="0" x2="270" y2="310"/><line x1="360" y1="0" x2="360" y2="310"/>
  <line x1="450" y1="0" x2="450" y2="310"/><line x1="540" y1="0" x2="540" y2="310"/>
  <line x1="630" y1="0" x2="630" y2="310"/><line x1="720" y1="0" x2="720" y2="310"/>
  <line x1="810" y1="0" x2="810" y2="310"/><line x1="900" y1="0" x2="900" y2="310"/>
  <line x1="990" y1="0" x2="990" y2="310"/><line x1="1080" y1="0" x2="1080" y2="310"/>
  <line x1="1170" y1="0" x2="1170" y2="310"/>
</g>

<ellipse class="orb" cx="640" cy="145" rx="400" ry="150" fill="url(#orb)"/>

<text x="645" y="166" text-anchor="middle"
  font-family="'Arial Black','Impact',sans-serif" font-size="90" font-weight="900"
  letter-spacing="6" fill="none" stroke="#001840" stroke-width="4" opacity="0.5">ANSH JAISWAL</text>

<text class="title" x="640" y="162" text-anchor="middle"
  font-family="'Arial Black','Impact',sans-serif" font-size="90" font-weight="900"
  letter-spacing="6" fill="#ffffff" filter="url(#neon)">ANSH JAISWAL</text>

<text class="subtitle" x="640" y="202" text-anchor="middle"
  font-family="Arial,sans-serif" font-size="14" letter-spacing="3" fill="#00d4ff"
  filter="url(#subGlow)">&#9889; ASPIRING SOFTWARE ENGINEER · AI BUILDER · CLASS OF 2028 &#9889;</text>

<g class="badge1">
  <rect x="376" y="220" width="122" height="26" rx="5" fill="rgba(0,212,255,.12)" stroke="#00d4ff" stroke-width=".8" stroke-opacity=".6"/>
  <text x="437" y="237" text-anchor="middle" font-family="Arial,sans-serif" font-size="11" fill="#00d4ff" letter-spacing="1.2">AKTU · IT · 2028</text>
</g>
<g class="badge2">
  <rect x="514" y="220" width="124" height="26" rx="5" fill="rgba(123,47,255,.12)" stroke="#7b2fff" stroke-width=".8" stroke-opacity=".6"/>
  <text x="576" y="237" text-anchor="middle" font-family="Arial,sans-serif" font-size="11" fill="#a374ff" letter-spacing="1.2">2× AI INTERN</text>
</g>
<g class="badge3">
  <rect x="654" y="220" width="168" height="26" rx="5" fill="rgba(255,107,53,.12)" stroke="#ff6b35" stroke-width=".8" stroke-opacity=".6"/>
  <text x="738" y="237" text-anchor="middle" font-family="Arial,sans-serif" font-size="11" fill="#ff8c55" letter-spacing="1.2">VIBE2SHIP 2026 🏆</text>
</g>

<path d="M0,278 C213,310 427,260 640,278 C853,296 1067,258 1280,278 L1280,310 L0,310 Z" fill="#0d1117"/>
</svg>
